<?xml version="1.0" encoding="UTF-8" standalone="no"?>
<!DOCTYPE svg PUBLIC "-//W3C//DTD SVG 1.1//EN"
 "http://www.w3.org/Graphics/SVG/1.1/DTD/svg11.dtd">
<!-- Generated by graphviz version 2.38.0 (20140413.2041)
 -->
<!-- Title: overview Pages: 1 -->
<svg width="475pt" height="58pt"
 viewBox="0.00 0.00 475.00 58.23" xmlns="http://www.w3.org/2000/svg" xmlns:xlink="http://www.w3.org/1999/xlink">
<g id="graph0" class="graph" transform="scale(1 1) rotate(0) translate(4 54.2339)">
<title>overview</title>
<polygon fill="white" stroke="none" points="-4,4 -4,-54.2339 471,-54.2339 471,4 -4,4"/>
<!-- client -->
<g id="node1" class="node"><title>client</title>
<ellipse fill="none" stroke="black" cx="27" cy="-32.2339" rx="27" ry="18"/>
<text text-anchor="middle" x="27" y="-29.4339" font-family="Helvetica,Arial,sans-serif" font-size="11.00">client</text>
</g>
<!-- search engine -->
<g id="node2" class="node"><title>search engine</title>
<polygon fill="none" stroke="black" points="174,-50.2339 90,-50.2339 90,-14.2339 174,-14.2339 174,-50.2339"/>
<text text-anchor="middle" x="132" y="-29.4339" font-family="Helvetica,Arial,sans-serif" font-size="11.00">search engine</text>
</g>
<!-- client&#45;&gt;search engine -->
<g id="edge1" class="edge"><title>client&#45;&gt;search engine</title>
<path fill="none" stroke="black" d="M52.6711,-26.3747C60.8004,-25.7801 70.1672,-25.4832 79.5325,-25.4839"/>
<polygon fill="black" stroke="black" points="79.5957,-28.9848 89.6357,-25.6015 79.6772,-21.9852 79.5957,-28.9848"/>
</g>
<!-- search engine&#45;&gt;client -->
<g id="edge8" class="edge"><title>search engine&#45;&gt;client</title>
<path fill="none" stroke="black" d="M89.6357,-38.8663C80.7272,-39.0754 71.3974,-39.0056 62.7702,-38.6568"/>
<polygon fill="black" stroke="black" points="62.8506,-35.156 52.6711,-38.0931 62.4604,-42.1451 62.8506,-35.156"/>
</g>
<!-- TXP -->
<g id="node3" class="node"><title>TXP</title>
<polygon fill="none" stroke="black" points="264,-32.2339 250.5,-50.2339 223.5,-50.2339 210,-32.2339 223.5,-14.2339 250.5,-14.2339 264,-32.2339"/>
<text text-anchor="middle" x="237" y="-29.4339" font-family="Helvetica,Arial,sans-serif" font-size="11.00">TXP</text>
</g>
<!-- search engine&#45;&gt;TXP -->
<g id="edge2" class="edge"><title>search engine&#45;&gt;TXP</title>
<path fill="none" stroke="black" d="M174.004,-25.6101C183.95,-25.3679 194.441,-25.4743 203.907,-25.9293"/>
<polygon fill="black" stroke="black" points="203.869,-29.4342 214.076,-26.5911 204.324,-22.4489 203.869,-29.4342"/>
</g>
<!-- TXP&#45;&gt;search engine -->
<g id="edge7" class="edge"><title>TXP&#45;&gt;search engine</title>
<path fill="none" stroke="black" d="M214.076,-37.8767C205.239,-38.6249 194.644,-38.9939 184.073,-38.9837"/>
<polygon fill="black" stroke="black" points="184.047,-35.4832 174.004,-38.8577 183.96,-42.4826 184.047,-35.4832"/>
</g>
<!-- taxi operator -->
<g id="node4" class="node"><title>taxi operator</title>
<polygon fill="none" stroke="black" points="377,-50.2339 300,-50.2339 300,-14.2339 377,-14.2339 377,-50.2339"/>
<text text-anchor="middle" x="338.5" y="-29.4339" font-family="Helvetica,Arial,sans-serif" font-size="11.00">taxi operator</text>
</g>
<!-- TXP&#45;&gt;taxi operator -->
<g id="edge3" class="edge"><title>TXP&#45;&gt;taxi operator</title>
<path fill="none" stroke="black" d="M260.082,-26.5139C268.842,-25.7834 279.28,-25.4415 289.61,-25.4881"/>
<polygon fill="black" stroke="black" points="289.78,-28.9914 299.839,-25.6642 289.901,-21.9925 289.78,-28.9914"/>
</g>
<!-- taxi operator&#45;&gt;TXP -->
<g id="edge6" class="edge"><title>taxi operator&#45;&gt;TXP</title>
<path fill="none" stroke="black" d="M299.839,-38.8036C290.093,-39.0997 279.687,-39.0311 270.246,-38.5979"/>
<polygon fill="black" stroke="black" points="270.284,-35.0934 260.082,-37.9539 269.841,-42.0794 270.284,-35.0934"/>
</g>
<!-- taxi -->
<g id="node5" class="node"><title>taxi</title>
<ellipse fill="none" stroke="black" cx="440" cy="-32.2339" rx="27" ry="18"/>
<text text-anchor="middle" x="440" y="-29.4339" font-family="Helvetica,Arial,sans-serif" font-size="11.00">taxi</text>
</g>
<!-- taxi operator&#45;&gt;taxi -->
<g id="edge4" class="edge"><title>taxi operator&#45;&gt;taxi</title>
<path fill="none" stroke="black" d="M377.117,-25.6656C385.959,-25.3959 395.346,-25.4264 404.064,-25.7572"/>
<polygon fill="black" stroke="black" points="404.112,-29.2648 414.287,-26.3096 404.49,-22.275 404.112,-29.2648"/>
</g>
<!-- taxi&#45;&gt;TXP -->
<g id="edge9" class="edge"><title>taxi&#45;&gt;TXP</title>
<path fill="none" stroke="black" stroke-dasharray="1,5" d="M418.756,-20.8918C406.97,-14.943 391.597,-8.27435 377,-5.2339 343.497,1.74463 333.503,1.74463 300,-5.2339 288.208,-7.69005 275.91,-12.5139 265.405,-17.4133"/>
<polygon fill="black" stroke="black" points="263.763,-14.3203 256.328,-21.8682 266.848,-20.6043 263.763,-14.3203"/>
</g>
<!-- taxi&#45;&gt;taxi operator -->
<g id="edge5" class="edge"><title>taxi&#45;&gt;taxi operator</title>
<path fill="none" stroke="black" d="M414.287,-38.1581C406.049,-38.7521 396.572,-39.0256 387.193,-38.9788"/>
<polygon fill="black" stroke="black" points="387.177,-35.478 377.117,-38.8022 387.054,-42.477 387.177,-35.478"/>
</g>
</g>
</svg>
